<svg xmlns="http://www.w3.org/2000/svg" class="font" viewBox="0 0 122.939 60"><g id="c6213800-d49b-495d-8683-03bd598f9e5f" fill="#fff"><path d="M4.13 0.70L4.13 0.70L4.44 0.70L4.44 10.50L4.13 10.50L3.15 10.50L2.90 10.50L2.90 5.60L1.54 5.60L1.54 10.50L0.98 10.50L0 10.50L0 0.70L0.98 0.70L1.54 0.70L1.54 4.06L2.90 4.06L2.90 0.70L3.15 0.70L4.13 0.70ZM6.27 0.70L8.86 0.70L8.86 0.70Q9.25 0.77 9.52 1.08L9.52 1.08L9.52 1.08Q9.79 1.40 9.79 1.81L9.79 1.81L9.79 2.86L9.79 3.28L9.79 3.30L9.79 8.36L9.79 9.41L9.79 9.41Q9.79 9.81 9.52 10.12L9.52 10.12L9.52 10.12Q9.25 10.43 8.86 10.50L8.86 10.50L6.27 10.50L6.27 10.50Q5.88 10.43 5.61 10.12L5.61 10.12L5.61 10.12Q5.35 9.81 5.35 9.41L5.35 9.41L5.35 1.81L5.35 1.81Q5.35 1.40 5.61 1.08L5.61 1.08L5.61 1.08Q5.88 0.77 6.27 0.70L6.27 0.70ZM8.25 3.30L8.25 3.28L8.25 2.86L8.25 2.24L6.89 2.24L6.89 8.97L8.25 8.97L8.25 8.36L8.25 3.30ZM15.13 1.68L15.13 1.67L15.13 1.82L15.13 4.49L15.13 4.49Q15.13 4.96 14.81 5.28L14.81 5.28L14.81 5.28Q14.49 5.60 14.03 5.60L14.03 5.60L12.24 5.60L12.22 10.50L10.70 10.50L10.70 4.06L12.22 4.06L13.59 4.06L13.59 2.25L12.22 2.25L12.22 4.06L10.70 1.02L10.70 0.70L14.03 0.70L14.03 0.70Q14.45 0.70 14.76 0.99L14.76 0.99L14.76 0.99Q15.08 1.27 15.13 1.68L15.13 1.68ZM17.61 0.70L17.61 0.70L20.08 0.70L20.08 1.68L20.08 2.24L17.61 2.24L17.61 4.07L19.57 4.07L19.57 4.35L19.57 5.33L19.57 5.61L17.61 5.61L17.61 8.96L20.08 8.96L20.08 9.52L20.08 10.50L17.61 10.50L16.07 10.50L16.07 9.48L16.07 4.07L17.61 4.07L16.07 1.04L16.07 0.70L17.61 0.70Z" transform="matrix(6.1224488604322,0,0,6.1224488604322,-2.2441734870426444e-7,-4.285714427340487)"/></g></svg>